<svg width="44" height="44" viewBox="0 0 44 44" fill="none" xmlns="http://www.w3.org/2000/svg">
<path d="M33.57 7.82992C33.0558 7.82992 32.5531 7.98241 32.1255 8.2681C31.6979 8.55379 31.3647 8.95985 31.1679 9.43494C30.9711 9.91003 30.9196 10.4328 31.0199 10.9372C31.1203 11.4415 31.3679 11.9048 31.7315 12.2684C32.0951 12.632 32.5584 12.8796 33.0628 12.98C33.5671 13.0803 34.0899 13.0288 34.565 12.832C35.0401 12.6352 35.4461 12.302 35.7318 11.8744C36.0175 11.4468 36.17 10.9442 36.17 10.4299C36.17 9.74036 35.8961 9.07904 35.4085 8.59144C34.9209 8.10385 34.2595 7.82992 33.57 7.82992V7.82992ZM43.5367 13.0733C43.4945 11.2756 43.1578 9.49696 42.54 7.80825C41.9891 6.36337 41.1316 5.05502 40.0267 3.97325C38.9538 2.86268 37.6424 2.01063 36.1916 1.48159C34.5074 0.844934 32.7268 0.50054 30.9267 0.463252C28.63 0.333252 27.8933 0.333252 22 0.333252C16.1066 0.333252 15.37 0.333252 13.0733 0.463252C11.2731 0.50054 9.49256 0.844934 7.80831 1.48159C6.36028 2.01599 5.05 2.8673 3.97331 3.97325C2.86274 5.04614 2.0107 6.35754 1.48165 7.80825C0.844995 9.4925 0.500601 11.2731 0.463313 13.0733C0.333313 15.3699 0.333313 16.1066 0.333313 21.9999C0.333313 27.8933 0.333313 28.6299 0.463313 30.9266C0.500601 32.7268 0.844995 34.5073 1.48165 36.1916C2.0107 37.6423 2.86274 38.9537 3.97331 40.0266C5.05 41.1325 6.36028 41.9838 7.80831 42.5183C9.49256 43.1549 11.2731 43.4993 13.0733 43.5366C15.37 43.6666 16.1066 43.6666 22 43.6666C27.8933 43.6666 28.63 43.6666 30.9267 43.5366C32.7268 43.4993 34.5074 43.1549 36.1916 42.5183C37.6424 41.9892 38.9538 41.1372 40.0267 40.0266C41.1365 38.9488 41.9947 37.6393 42.54 36.1916C43.1578 34.5029 43.4945 32.7243 43.5367 30.9266C43.5367 28.6299 43.6667 27.8933 43.6667 21.9999C43.6667 16.1066 43.6667 15.3699 43.5367 13.0733V13.0733ZM39.6367 30.6666C39.6209 32.0419 39.3718 33.4046 38.9 34.6966C38.554 35.6395 37.9984 36.4915 37.275 37.1883C36.5722 37.9044 35.722 38.4589 34.7833 38.8133C33.4913 39.2851 32.1287 39.5341 30.7533 39.5499C28.5867 39.6583 27.785 39.6799 22.0866 39.6799C16.3883 39.6799 15.5866 39.6799 13.42 39.5499C11.9919 39.5767 10.5699 39.3568 9.21665 38.8999C8.31917 38.5274 7.50792 37.9743 6.83331 37.2749C6.11417 36.5789 5.56547 35.7262 5.22998 34.7833C4.701 33.4727 4.40761 32.0791 4.36331 30.6666C4.36331 28.4999 4.23331 27.6983 4.23331 21.9999C4.23331 16.3016 4.23331 15.4999 4.36331 13.3333C4.37303 11.9272 4.62971 10.5338 5.12165 9.21659C5.50308 8.30206 6.08855 7.48685 6.83331 6.83325C7.49158 6.08828 8.3051 5.49663 9.21665 5.09992C10.5373 4.62335 11.9293 4.37426 13.3333 4.36325C15.5 4.36325 16.3016 4.23325 22 4.23325C27.6983 4.23325 28.5 4.23325 30.6667 4.36325C32.042 4.37903 33.4047 4.62812 34.6967 5.09992C35.6813 5.46533 36.565 6.05942 37.275 6.83325C37.985 7.49881 38.5398 8.31251 38.9 9.21659C39.3815 10.5359 39.6308 11.9288 39.6367 13.3333C39.745 15.4999 39.7667 16.3016 39.7667 21.9999C39.7667 27.6983 39.745 28.4999 39.6367 30.6666ZM22 10.8849C19.8026 10.8892 17.6557 11.5447 15.8307 12.7687C14.0057 13.9926 12.5845 15.73 11.7465 17.7614C10.9086 19.7928 10.6915 22.0269 11.1229 24.1816C11.5542 26.3363 12.6145 28.3147 14.1698 29.867C15.7251 31.4193 17.7057 32.4758 19.8612 32.9029C22.0167 33.33 24.2504 33.1087 26.2802 32.2667C28.3099 31.4248 30.0446 30.0002 31.2649 28.1728C32.4853 26.3454 33.1366 24.1973 33.1366 21.9999C33.1395 20.5376 32.8533 19.0892 32.2943 17.738C31.7354 16.3867 30.9149 15.1593 29.8799 14.1264C28.8449 13.0934 27.6159 12.2752 26.2635 11.7189C24.9112 11.1626 23.4622 10.8792 22 10.8849V10.8849ZM22 29.2149C20.573 29.2149 19.178 28.7918 17.9915 27.999C16.805 27.2062 15.8803 26.0793 15.3342 24.761C14.7881 23.4426 14.6452 21.9919 14.9236 20.5923C15.202 19.1928 15.8892 17.9072 16.8982 16.8981C17.9072 15.8891 19.1928 15.2019 20.5924 14.9236C21.992 14.6452 23.4427 14.788 24.761 15.3341C26.0794 15.8802 27.2062 16.805 27.999 17.9915C28.7918 19.178 29.215 20.5729 29.215 21.9999C29.215 22.9474 29.0284 23.8856 28.6658 24.761C28.3032 25.6363 27.7717 26.4317 27.1018 27.1017C26.4318 27.7717 25.6364 28.3031 24.761 28.6657C23.8857 29.0283 22.9475 29.2149 22 29.2149V29.2149Z" fill="white"/>
</svg>
