<svg width="285" height="53" viewBox="0 0 285 53" fill="none" xmlns="http://www.w3.org/2000/svg">
<path d="M23.2578 52.768C18.5218 52.768 14.4044 51.8507 10.9058 50.016C7.44976 48.1813 4.80442 45.664 2.96976 42.464C1.13509 39.2213 0.217757 35.5947 0.217757 31.584C0.217757 27.7013 1.24176 24.224 3.28976 21.152C5.33776 18.0373 8.13242 15.6267 11.6738 13.92C15.2151 12.1707 19.1618 11.296 23.5138 11.296C25.5191 11.296 27.5671 11.488 29.6578 11.872C31.7484 12.2133 33.3911 12.64 34.5858 13.152C34.9271 13.3227 35.1404 13.4933 35.2258 13.664C35.3111 13.8347 35.3751 14.1547 35.4178 14.624L35.9298 23.008C35.9298 23.1787 35.8231 23.2853 35.6098 23.328C35.3964 23.3707 35.2471 23.328 35.1618 23.2C33.6684 19.9573 31.7058 17.44 29.2738 15.648C26.8418 13.8133 24.0258 12.896 20.8258 12.896C16.6871 12.896 13.4658 14.368 11.1618 17.312C8.85776 20.2133 7.70576 24.1813 7.70576 29.216C7.70576 33.6107 8.47376 37.4933 10.0098 40.864C11.5458 44.2347 13.6364 46.8373 16.2818 48.672C18.9698 50.5067 21.9991 51.424 25.3698 51.424C26.9058 51.424 28.0791 51.2107 28.8898 50.784C29.7004 50.3147 30.2551 49.568 30.5538 48.544C30.8951 47.4773 31.0658 45.9413 31.0658 43.936C31.0658 41.8453 30.8738 40.3307 30.4898 39.392C30.1058 38.4533 29.4018 37.8347 28.3778 37.536C27.3538 37.2373 25.7111 37.088 23.4498 37.088C23.1938 37.088 23.0658 36.9173 23.0658 36.576C23.0658 36.448 23.0871 36.3413 23.1298 36.256C23.2151 36.128 23.3004 36.064 23.3858 36.064C26.9271 36.2773 29.8711 36.384 32.2178 36.384C34.4364 36.384 36.7404 36.32 39.1298 36.192C39.3004 36.192 39.4071 36.3413 39.4498 36.64C39.4924 36.9387 39.4284 37.088 39.2578 37.088C38.5751 37.0453 38.1484 37.216 37.9778 37.6C37.8071 37.984 37.7218 38.8587 37.7218 40.224V44.576C37.7218 46.496 37.7858 47.84 37.9138 48.608C38.0418 49.376 38.1058 49.9093 38.1058 50.208C38.1058 50.464 38.0631 50.6347 37.9778 50.72C37.9351 50.8053 37.7858 50.8907 37.5298 50.976C32.0684 52.1707 27.3111 52.768 23.2578 52.768ZM77.6318 41.824C77.7171 41.7387 77.8238 41.696 77.9518 41.696C78.0798 41.696 78.2078 41.7387 78.3358 41.824C78.4638 41.8667 78.5064 41.9093 78.4638 41.952C78.0371 44.7253 77.8238 47.7547 77.8238 51.04C77.8238 51.3813 77.7598 51.6373 77.6318 51.808C77.5038 51.936 77.2478 52 76.8638 52H47.6798C47.5091 52 47.4238 51.872 47.4238 51.616C47.4238 51.36 47.4878 51.232 47.6158 51.232C48.8958 51.232 49.8131 51.1253 50.3678 50.912C50.9651 50.6987 51.3491 50.2933 51.5198 49.696C51.7331 49.0987 51.8398 48.1387 51.8398 46.816V17.184C51.8398 15.904 51.7331 14.9653 51.5198 14.368C51.3064 13.7707 50.9011 13.3653 50.3038 13.152C49.7064 12.896 48.8104 12.768 47.6158 12.768C47.4878 12.768 47.4024 12.64 47.3598 12.384C47.3598 12.128 47.4024 12 47.4878 12H75.0718C75.4131 12 75.5838 12.192 75.5838 12.576L75.7118 21.024C75.7118 21.152 75.5838 21.216 75.3278 21.216C75.1144 21.216 74.9864 21.1733 74.9438 21.088C74.2184 18.6987 72.8958 16.8213 70.9758 15.456C69.0984 14.048 66.8584 13.344 64.2558 13.344H63.0398C61.7171 13.344 60.7571 13.4507 60.1598 13.664C59.6051 13.8347 59.2424 14.176 59.0718 14.688C58.9011 15.2 58.7944 16.0533 58.7518 17.248V30.304H66.7518C68.9278 30.304 70.5278 29.92 71.5518 29.152C72.5758 28.384 73.0878 27.1467 73.0878 25.44C73.0878 25.2693 73.2371 25.184 73.5358 25.184C73.8344 25.184 73.9838 25.2907 73.9838 25.504L73.9198 29.024C73.8771 29.536 73.8558 30.2613 73.8558 31.2C73.8558 32.5653 73.8771 33.5893 73.9198 34.272L73.9838 37.728C73.9838 37.9413 73.8558 38.048 73.5998 38.048C73.4718 38.048 73.3438 38.0267 73.2158 37.984C73.1304 37.8987 73.0878 37.8133 73.0878 37.728C73.0878 35.8933 72.5118 34.5067 71.3598 33.568C70.2504 32.5867 68.6718 32.096 66.6238 32.096H58.7518V46.56C58.7518 48.2667 59.0078 49.376 59.5198 49.888C60.0744 50.4 61.2051 50.656 62.9118 50.656H64.7038C67.4771 50.656 70.0158 49.8667 72.3198 48.288C74.6238 46.6667 76.3944 44.512 77.6318 41.824ZM128.273 51.232C128.401 51.232 128.465 51.36 128.465 51.616C128.507 51.872 128.443 52 128.273 52H117.777C116.753 52 114.961 50.2933 112.401 46.88C109.883 43.424 106.833 38.24 103.249 31.328C102.054 31.6267 100.731 31.776 99.2808 31.776C99.0674 31.776 98.7901 31.7333 98.4488 31.648V46.816C98.4061 48.0533 98.4914 48.992 98.7048 49.632C98.9608 50.2293 99.3874 50.656 99.9848 50.912C100.625 51.1253 101.585 51.232 102.865 51.232C103.035 51.232 103.121 51.36 103.121 51.616C103.163 51.872 103.099 52 102.929 52C101.478 52 100.369 51.9787 99.6008 51.936L94.8648 51.872L90.0648 51.936C89.2114 51.9787 88.0594 52 86.6088 52C86.4381 52 86.3314 51.872 86.2888 51.616C86.2888 51.36 86.3741 51.232 86.5448 51.232C87.9528 51.232 88.9981 51.1253 89.6808 50.912C90.3634 50.656 90.8114 50.2293 91.0248 49.632C91.2808 48.992 91.4301 48.0533 91.4728 46.816V17.184C91.4728 15.904 91.3448 14.9653 91.0888 14.368C90.8754 13.7707 90.4488 13.3653 89.8088 13.152C89.1688 12.896 88.1874 12.768 86.8648 12.768C86.6941 12.768 86.6088 12.64 86.6088 12.384C86.6088 12.128 86.6941 12 86.8648 12L90.2568 12.064C92.1341 12.1493 93.6701 12.192 94.8648 12.192C96.3154 12.192 97.8941 12.1067 99.6008 11.936C100.966 11.8507 101.862 11.808 102.289 11.808C106.598 11.808 109.819 12.512 111.953 13.92C114.129 15.328 115.217 17.2907 115.217 19.808C115.217 21.6427 114.598 23.4133 113.361 25.12C112.166 26.8267 110.566 28.256 108.561 29.408C111.889 34.912 114.705 39.2427 117.009 42.4C119.355 45.5147 121.403 47.776 123.153 49.184C124.945 50.5493 126.651 51.232 128.273 51.232ZM98.4488 29.856C98.9608 29.984 99.5794 30.048 100.305 30.048C103.121 30.048 105.105 29.4293 106.257 28.192C107.451 26.9547 108.049 24.8853 108.049 21.984C108.049 18.9547 107.451 16.736 106.257 15.328C105.105 13.8773 103.675 13.152 101.969 13.152C100.817 13.152 100.027 13.2373 99.6008 13.408C99.1741 13.536 98.8754 13.8773 98.7048 14.432C98.5768 14.944 98.4914 15.904 98.4488 17.312V29.856ZM133.49 52C133.405 52 133.362 51.872 133.362 51.616C133.362 51.36 133.405 51.232 133.49 51.232C134.813 51.232 135.752 51.1253 136.306 50.912C136.904 50.6987 137.309 50.2933 137.522 49.696C137.736 49.0987 137.842 48.1387 137.842 46.816V17.184C137.842 15.9467 137.714 15.0293 137.458 14.432C137.245 13.792 136.84 13.3653 136.242 13.152C135.645 12.896 134.728 12.768 133.49 12.768C133.405 12.768 133.341 12.64 133.298 12.384C133.298 12.128 133.362 12 133.49 12L136.69 12.064C138.568 12.1493 140.082 12.192 141.234 12.192C142.514 12.192 144.136 12.1493 146.098 12.064L149.234 12C149.32 12 149.362 12.128 149.362 12.384C149.362 12.64 149.32 12.768 149.234 12.768C147.954 12.768 147.016 12.896 146.418 13.152C145.821 13.408 145.416 13.8347 145.202 14.432C145.032 15.0293 144.925 15.9893 144.882 17.312V46.816C144.882 48.096 144.989 49.0347 145.202 49.632C145.458 50.2293 145.885 50.656 146.482 50.912C147.08 51.1253 147.997 51.232 149.234 51.232C149.32 51.232 149.362 51.36 149.362 51.616C149.362 51.872 149.32 52 149.234 52C147.912 52 146.845 51.9787 146.034 51.936L141.362 51.872L136.818 51.936C136.008 51.9787 134.898 52 133.49 52ZM137.202 8.608C137.032 8.608 136.904 8.52266 136.818 8.352C136.733 8.13866 136.754 7.98933 136.882 7.904C137.949 7.05066 139.357 5.70666 141.106 3.872C142.856 2.12266 143.73 1.248 143.73 1.248C143.944 1.03466 144.712 1.12 146.034 1.504C147.4 1.84533 148.616 2.272 149.682 2.784C150.792 3.25333 151.112 3.53067 150.642 3.616C146.077 4.81066 141.64 6.45333 137.33 8.544L137.202 8.608ZM180.172 52.768C174.924 52.768 170.614 51.744 167.244 49.696C163.873 47.648 161.441 45.0667 159.948 41.952C158.454 38.7947 157.708 35.4667 157.708 31.968C157.708 27.744 158.732 24.0747 160.78 20.96C162.87 17.8027 165.622 15.4133 169.036 13.792C172.492 12.128 176.225 11.296 180.236 11.296C182.198 11.296 184.246 11.488 186.38 11.872C188.513 12.2133 190.241 12.64 191.564 13.152C191.905 13.3653 192.118 13.5573 192.204 13.728C192.332 13.8987 192.396 14.1973 192.396 14.624L192.844 23.2C192.844 23.328 192.737 23.392 192.524 23.392C192.353 23.392 192.225 23.328 192.14 23.2C190.561 19.9573 188.534 17.4613 186.06 15.712C183.628 13.92 180.854 13.024 177.74 13.024C173.686 13.024 170.572 14.496 168.396 17.44C166.262 20.384 165.196 24.5227 165.196 29.856C165.196 33.696 165.857 37.28 167.18 40.608C168.545 43.936 170.38 46.5813 172.684 48.544C174.988 50.5067 177.526 51.488 180.3 51.488C184.694 51.488 188.79 48.2453 192.588 41.76C192.673 41.632 192.78 41.568 192.908 41.568C193.164 41.568 193.292 41.696 193.292 41.952L192.908 49.312C192.822 49.8667 192.737 50.2293 192.652 50.4C192.566 50.528 192.332 50.656 191.948 50.784C188.193 52.1067 184.268 52.768 180.172 52.768ZM242.621 51.232C242.706 51.232 242.749 51.36 242.749 51.616C242.749 51.872 242.706 52 242.621 52C241.426 52 240.445 51.9787 239.677 51.936L234.877 51.872L230.269 51.936C229.458 51.9787 228.349 52 226.941 52C226.855 52 226.791 51.872 226.749 51.616C226.749 51.36 226.813 51.232 226.941 51.232C228.263 51.232 229.202 51.1253 229.757 50.912C230.354 50.6987 230.738 50.2933 230.909 49.696C231.079 49.0987 231.165 48.1387 231.165 46.816V32.096H212.733V46.816C212.733 48.096 212.839 49.0347 213.053 49.632C213.309 50.2293 213.735 50.656 214.333 50.912C214.93 51.1253 215.869 51.232 217.149 51.232C217.277 51.232 217.341 51.36 217.341 51.616C217.341 51.872 217.277 52 217.149 52C215.741 52 214.653 51.9787 213.885 51.936L209.149 51.872L204.733 51.936C203.922 51.9787 202.855 52 201.533 52C201.405 52 201.341 51.872 201.341 51.616C201.341 51.36 201.405 51.232 201.533 51.232C202.813 51.232 203.73 51.1253 204.285 50.912C204.882 50.6987 205.266 50.2933 205.437 49.696C205.65 49.0987 205.757 48.1387 205.757 46.816V17.184C205.799 15.392 205.543 14.2187 204.989 13.664C204.434 13.0667 203.282 12.768 201.533 12.768C201.405 12.768 201.341 12.64 201.341 12.384C201.341 12.128 201.405 12 201.533 12L204.605 12.064C206.482 12.1493 207.997 12.192 209.149 12.192C210.301 12.192 211.858 12.1493 213.821 12.064L217.085 12C217.17 12 217.213 12.128 217.213 12.384C217.213 12.64 217.17 12.768 217.085 12.768C215.805 12.768 214.866 12.896 214.269 13.152C213.671 13.408 213.266 13.856 213.053 14.496C212.882 15.0933 212.775 16.032 212.733 17.312V30.304H231.101V17.312C231.101 15.4773 230.823 14.2613 230.269 13.664C229.757 13.0667 228.626 12.768 226.877 12.768C226.791 12.768 226.727 12.64 226.685 12.384C226.685 12.128 226.749 12 226.877 12L230.013 12.064C231.89 12.1493 233.426 12.192 234.621 12.192C235.773 12.192 237.287 12.1493 239.165 12.064L242.429 12C242.557 12 242.621 12.128 242.621 12.384C242.621 12.64 242.557 12.768 242.429 12.768C241.149 12.768 240.21 12.896 239.613 13.152C239.058 13.3653 238.674 13.7707 238.461 14.368C238.247 14.9653 238.098 15.904 238.013 17.184V46.816C238.013 48.0533 238.141 48.992 238.397 49.632C238.695 50.2293 239.165 50.656 239.805 50.912C240.445 51.1253 241.383 51.232 242.621 51.232ZM257.817 52C257.689 52 257.625 51.872 257.625 51.616C257.625 51.36 257.668 51.232 257.753 51.232C259.545 51.232 260.847 51.1253 261.657 50.912C262.511 50.6987 263.087 50.2933 263.385 49.696C263.684 49.056 263.833 48.096 263.833 46.816V17.184C263.876 15.6907 263.684 14.7093 263.257 14.24C262.831 13.728 262.02 13.472 260.825 13.472H259.993C258.543 13.472 257.113 13.9413 255.705 14.88C254.297 15.776 253.103 16.992 252.121 18.528C251.14 20.0213 250.543 21.664 250.329 23.456C250.329 23.5413 250.223 23.584 250.009 23.584C249.881 23.584 249.753 23.5627 249.625 23.52C249.54 23.4347 249.519 23.3707 249.561 23.328C249.775 21.7067 250.095 17.4613 250.521 10.592C250.521 10.464 250.628 10.4 250.841 10.4C250.969 10.4 251.076 10.4213 251.161 10.464C251.289 10.5067 251.353 10.5707 251.353 10.656C251.353 11.552 252.313 12 254.233 12C257.689 12.128 262.02 12.192 267.225 12.192C269.572 12.192 272.196 12.1493 275.097 12.064L279.577 12C280.985 12 282.009 11.8933 282.649 11.68C283.289 11.4667 283.695 11.04 283.865 10.4C283.951 10.272 284.1 10.2293 284.313 10.272C284.569 10.272 284.676 10.3573 284.633 10.528C284.505 12.4053 284.377 14.7733 284.249 17.632C284.121 20.448 284.079 22.3467 284.121 23.328C284.121 23.456 283.993 23.52 283.737 23.52C283.396 23.52 283.225 23.4347 283.225 23.264C283.225 21.5147 282.82 19.8933 282.009 18.4C281.241 16.9067 280.153 15.712 278.745 14.816C277.38 13.92 275.887 13.472 274.265 13.472H273.433C272.58 13.472 271.961 13.5787 271.577 13.792C271.236 14.0053 271.023 14.368 270.937 14.88C270.852 15.3493 270.788 16.16 270.745 17.312L270.809 46.816C270.809 48.1387 270.937 49.0987 271.193 49.696C271.492 50.2933 272.047 50.6987 272.857 50.912C273.668 51.1253 274.991 51.232 276.825 51.232C276.953 51.232 277.017 51.36 277.017 51.616C277.017 51.872 276.953 52 276.825 52C275.247 52 274.009 51.9787 273.113 51.936L267.289 51.872L261.785 51.936C260.847 51.9787 259.524 52 257.817 52Z" fill="#DCCA87"/>
</svg>
